<svg xmlns="http://www.w3.org/2000/svg" viewBox="0 0 800 520" role="img" aria-labelledby="t d"><title id="t">HVAC service illustration</title><desc id="d">Modern heating and cooling service illustration in Zennora brand colors.</desc><defs><linearGradient id="bg" x1="0" y1="0" x2="1" y2="1"><stop stop-color="#eef5ff"/><stop offset="1" stop-color="#f3efff"/></linearGradient><linearGradient id="g" x1="0" y1="0" x2="1" y2="1"><stop stop-color="#2457f5"/><stop offset="1" stop-color="#7657ff"/></linearGradient></defs><rect width="800" height="520" rx="36" fill="url(#bg)"/><circle cx="694" cy="92" r="120" fill="#fff" opacity=".48"/><rect x="84" y="92" width="632" height="340" rx="30" fill="#fff" opacity=".95"/><rect x="130" y="142" width="256" height="190" rx="28" fill="#f4f7ff" stroke="#e1e7f4" stroke-width="3"/><circle cx="258" cy="236" r="65" fill="url(#g)" opacity=".95"/><circle cx="258" cy="236" r="18" fill="#fff"/><path d="M258 174c18 17 24 37 13 52-10 14-31 14-48 4 4-23 15-42 35-56ZM196 236c17-18 37-24 52-13 14 10 14 31 4 48-23-4-42-15-56-35ZM258 298c-18-17-24-37-13-52 10-14 31-14 48-4-4 23-15 42-35 56ZM320 236c-17 18-37 24-52 13-14-10-14-31-4-48 23 4 42 15 56 35Z" fill="#fff" opacity=".9"/><rect x="432" y="148" width="182" height="36" rx="18" fill="#e4ebfb"/><rect x="432" y="203" width="226" height="18" rx="9" fill="#e8edf8"/><rect x="432" y="234" width="174" height="18" rx="9" fill="#e8edf8"/><path d="M482 303h76v-48h28l-66-56-66 56h28v48Z" fill="#42d6a4" opacity=".88"/><path d="M520 235v68" stroke="#fff" stroke-width="7" stroke-linecap="round"/><path d="M500 280h40" stroke="#fff" stroke-width="7" stroke-linecap="round"/><text x="116" y="396" font-family="Arial,sans-serif" font-size="22" font-weight="700" fill="#07152f">HVAC</text><text x="116" y="424" font-family="Arial,sans-serif" font-size="15" fill="#60708d">Heating • cooling • maintenance • estimates</text></svg>